<?xml version="1.0" encoding="iso-8859-1"?>
<!-- Generator: Adobe Illustrator 19.0.0, SVG Export Plug-In . SVG Version: 6.00 Build 0)  -->
<svg xmlns="http://www.w3.org/2000/svg" xmlns:xlink="http://www.w3.org/1999/xlink" version="1.1" id="Layer_1" x="0px" y="0px" viewBox="0 0 511.999 511.999" style="enable-background:new 0 0 511.999 511.999;" xml:space="preserve" width="512px" height="512px">
<g>
	<g>
		<path d="M166.014,16.449l-63.54-15.862C92.005-2.027,81.399,4.341,78.785,14.81l-24.332,97.466    c-2.613,10.469,3.755,21.076,14.224,23.689l63.54,15.862c5.848,1.46,11.736,0.113,16.252-3.181l-25.583-41.368    c-10.475-16.938-5.236-39.16,11.703-49.634c13.059-8.076,29.254-6.803,40.789,1.962l4.861-19.468    C182.851,29.669,176.483,19.063,166.014,16.449z M114.481,62.599c-0.448,1.957-3.788,2.692-6.061,2.172    c-1.321-0.303-2.282-0.968-2.345-2.151l-0.283-7.018l-11.153-2.557l-3.312,6.196c-0.571,1.037-1.725,1.218-3.047,0.915    c-2.273-0.521-4.959-2.638-4.511-4.595c0.037-0.159,0.139-0.358,0.24-0.558l17.22-29.992c1.005-1.717,3.59-2.07,6.022-1.513    c2.43,0.557,4.603,2.001,4.762,3.984l2.496,34.51C114.514,62.216,114.517,62.44,114.481,62.599z M136.742,32.225    c-0.404,1.76-1.779,2.663-2.892,2.409l-4.447-1.019l-1.031,4.494c-0.297,1.298-1.657,1.912-3.418,1.509    c-1.667-0.383-2.763-1.56-2.466-2.856l1.029-4.495l-4.494-1.029c-1.296-0.296-1.91-1.655-1.507-3.417    c0.383-1.667,1.56-2.763,2.856-2.466l4.494,1.029l1.019-4.447c0.254-1.113,1.806-1.927,3.474-1.545    c1.76,0.403,2.663,1.78,2.409,2.892l-1.019,4.448l4.447,1.018C136.309,29.005,137.124,30.557,136.742,32.225z" fill="#dd3e1f"/>
	</g>
</g>
<g>
	<g>
		<polygon points="104.889,33.806 97.784,47.088 105.501,48.857   " fill="#dd3e1f"/>
	</g>
</g>
<g>
	<g>
		<path d="M454.408,54.813c6.041-7.842,4.58-19.098-3.262-25.139c-7.842-6.043-19.098-4.581-25.139,3.262    c-4.816,6.253-94.895,123.195-99.681,129.41c-37.204,0-19.475,0-56.685,0l-61.794-20.323l-39.048-63.141    c-5.208-8.419-16.253-11.023-24.673-5.817c-8.419,5.207-11.024,16.254-5.817,24.673l42.484,68.699    c2.22,3.589,5.636,6.281,9.645,7.599l63.315,20.823c0,24.771,0,96.082,0,121.526l-25.002,60.35    c-1.771,4.277-2.116,9.012-0.983,13.5l26.647,105.514c2.911,11.525,14.613,18.498,26.122,15.588    c11.518-2.908,18.497-14.604,15.588-26.122l-24.901-98.601l21.746-52.49c72.213,0,1.399,0.902,73.451-0.174l-18.289,93.756    c-2.274,11.66,5.334,22.956,16.994,25.231c11.658,2.274,22.956-5.334,25.231-16.994l23.365-119.778    c2.593-13.301-7.638-25.791-21.433-25.626l-43.59,0.65c0-11.065,0-85.997,0-99.236C349.71,190.782,341.572,201.3,454.408,54.813z" fill="#dd3e1f"/>
	</g>
</g>
<g>
	<g>
		<path d="M301.421,76.206c-20.518,0-37.15,16.632-37.15,37.15c0,20.526,16.648,37.15,37.15,37.15    c20.422,0,37.15-16.564,37.15-37.15C338.57,92.839,321.938,76.206,301.421,76.206z" fill="#dd3e1f"/>
	</g>
</g>
<g>
</g>
<g>
</g>
<g>
</g>
<g>
</g>
<g>
</g>
<g>
</g>
<g>
</g>
<g>
</g>
<g>
</g>
<g>
</g>
<g>
</g>
<g>
</g>
<g>
</g>
<g>
</g>
<g>
</g>
</svg>
