<?xml version="1.0" encoding="utf-8"?>
<!-- Generator: Adobe Illustrator 19.0.0, SVG Export Plug-In . SVG Version: 6.00 Build 0)  -->
<svg version="1.1" xmlns="http://www.w3.org/2000/svg" xmlns:xlink="http://www.w3.org/1999/xlink" x="0px" y="0px"
	 viewBox="0 0 600 200" style="enable-background:new 0 0 600 200;" xml:space="preserve">
<style type="text/css">
	.st0{fill:#FFFFFF;stroke:#000000;stroke-miterlimit:10;}
	.st1{fill:#FFFFFF;}
</style>
<g id="Layer_1">
	<g id="XMLID_1_">
		<path id="XMLID_2_" class="st0" d="M5.8,125.2"/>
		<g id="XMLID_3_">
			<path id="XMLID_6_" class="st1" d="M24.7,131.3c-5.2-1.8-9.3-4.2-12.3-7.3c-1-0.8-1.5-1.9-1.5-3.3c0-0.8,0.2-1.6,0.7-2.2
				c0.5-0.6,1-0.9,1.7-0.9c0.8,0,1.6,0.4,2.6,1.1c7.2,6,15.5,8.9,25.1,8.9c7,0,12.3-1.4,16.1-4.2c3.8-2.8,5.7-6.7,5.7-11.9
				c0-3-0.9-5.4-2.8-7.2c-1.8-1.8-4.2-3.3-7-4.3c-2.8-1-6.6-2.1-11.3-3.2c-6.3-1.4-11.3-2.8-15.2-4.2c-3.9-1.5-7.1-3.6-9.8-6.6
				c-2.7-2.9-4-6.9-4-11.9c0-4.5,1.2-8.5,3.6-12c2.4-3.5,5.8-6.2,10.1-8.1c4.4-1.9,9.4-2.9,15-2.9c5.3,0,10.2,0.9,14.9,2.6
				c4.7,1.7,8.5,4.2,11.6,7.4c1,1,1.5,2.1,1.5,3.3c0,0.8-0.2,1.6-0.7,2.2c-0.5,0.6-1.1,0.9-1.7,0.9c-0.8,0-1.6-0.4-2.6-1.1
				c-4.1-3.4-7.9-5.7-11.2-7c-3.3-1.3-7.2-1.9-11.7-1.9c-6.8,0-12.1,1.5-15.9,4.4c-3.8,2.9-5.7,7-5.7,12.1c0,3.1,0.8,5.7,2.5,7.6
				c1.7,1.9,3.9,3.5,6.6,4.6c2.7,1.1,6.2,2.3,10.5,3.3l3,0.7c6.2,1.5,11.1,2.9,14.7,4.2c3.6,1.3,6.6,3.3,9.1,6
				c2.5,2.7,3.7,6.4,3.7,10.9c0,4.4-1.2,8.2-3.6,11.6c-2.4,3.4-5.8,6-10.2,7.9c-4.4,1.9-9.4,2.8-15.1,2.8
				C35.4,134,30,133.1,24.7,131.3z"/>
			<path id="XMLID_8_" class="st1" d="M109,130.8c0,0.9-0.3,1.6-1,2.2c-0.7,0.5-1.8,0.8-3.3,0.7l-3.2-0.2
				c-5.8-0.4-10.1-2.2-12.9-5.3c-2.8-3.2-4.2-8-4.2-14.5V83.1h-8.7c-0.9,0-1.6-0.2-2.2-0.7c-0.5-0.5-0.8-1.2-0.8-2
				c0-0.8,0.3-1.5,0.8-2.1c0.5-0.5,1.3-0.8,2.2-0.8h8.7V63.3c0-1.1,0.3-2,0.9-2.6c0.6-0.6,1.5-0.9,2.5-0.9c1.1,0,1.9,0.3,2.6,0.9
				c0.6,0.6,1,1.5,1,2.6v14.2h13.9c1,0,1.8,0.3,2.3,0.8c0.5,0.5,0.8,1.2,0.8,2.1c0,0.8-0.3,1.5-0.8,2c-0.5,0.5-1.3,0.7-2.3,0.7H91.4
				V114c0,4.7,0.9,8.1,2.8,10.1c1.8,2,4.7,3.2,8.6,3.5l3.1,0.2C107.9,128,109,129,109,130.8z"/>
			<path id="XMLID_10_" class="st1" d="M160.4,77.3c0.6,0.6,1,1.5,1,2.6v50.2c0,1.1-0.3,1.9-1,2.6c-0.6,0.6-1.5,1-2.6,1
				c-1,0-1.8-0.3-2.4-1c-0.6-0.6-0.9-1.5-0.9-2.6v-7c-1.8,3.5-4.3,6.2-7.5,8c-3.2,1.8-6.9,2.8-11.1,2.8c-6.6,0-11.5-1.8-14.8-5.4
				c-3.3-3.6-5-9-5-16.1V79.9c0-1.1,0.3-1.9,1-2.6c0.6-0.6,1.5-1,2.6-1c1.1,0,1.9,0.3,2.5,1c0.6,0.6,0.9,1.5,0.9,2.6v32
				c0,5.4,1.1,9.4,3.3,12c2.2,2.6,5.6,3.8,10.3,3.8c5.3,0,9.6-1.7,12.9-5.1c3.2-3.4,4.9-7.9,4.9-13.6V79.9c0-1.1,0.3-1.9,0.9-2.6
				c0.6-0.6,1.5-1,2.5-1C158.9,76.4,159.8,76.7,160.4,77.3z"/>
			<path id="XMLID_12_" class="st1" d="M223.3,52.7c0.6,0.7,1,1.5,1,2.6V130c0,1.1-0.3,1.9-1,2.6c-0.7,0.6-1.5,1-2.6,1
				c-1.1,0-1.9-0.3-2.5-1c-0.6-0.6-0.9-1.5-0.9-2.6v-7.6c-1.7,3.7-4.2,6.6-7.4,8.5c-3.3,1.9-7.2,2.9-11.7,2.9c-4.9,0-9.2-1.2-13-3.6
				c-3.7-2.4-6.6-5.8-8.7-10.2c-2.1-4.4-3.1-9.5-3.1-15.3c0-5.7,1-10.8,3.1-15.1c2.1-4.3,5-7.7,8.7-10c3.7-2.4,8.1-3.6,13-3.6
				c4.5,0,8.4,1,11.7,2.9c3.3,1.9,5.8,4.8,7.4,8.5V55.3c0-1.1,0.3-1.9,0.9-2.6c0.6-0.6,1.5-1,2.5-1C221.8,51.7,222.7,52,223.3,52.7z
				 M212.6,121.8c3.2-3.9,4.8-9.5,4.8-16.8c0-7.3-1.6-12.9-4.7-16.8c-3.1-4-7.6-6-13.4-6c-5.9,0-10.4,2-13.6,5.9
				c-3.2,3.9-4.8,9.5-4.8,16.7c0,7.3,1.6,12.9,4.8,16.9s7.7,6,13.5,6C204.9,127.7,209.4,125.7,212.6,121.8z"/>
			<path id="XMLID_15_" class="st1" d="M284.3,122c0.5,0.6,0.7,1.2,0.7,2c0,1.7-1.3,3.3-3.9,4.9c-5.5,3.3-11.3,4.9-17.4,4.9
				c-8.5,0-15.2-2.6-20.1-7.7c-4.9-5.1-7.3-12.1-7.3-21.1c0-5.7,1.1-10.8,3.3-15.2c2.2-4.4,5.2-7.8,9.2-10.2
				c3.9-2.4,8.5-3.6,13.6-3.6c7.2,0,12.9,2.3,17,6.9c4.2,4.6,6.2,11,6.2,19.1c0,1.4-0.3,2.4-0.9,3c-0.6,0.6-1.6,1-3,1h-38.2
				c0.2,7,2.1,12.4,5.5,16c3.4,3.7,8.3,5.5,14.6,5.5c3.3,0,6-0.4,8.3-1.3c2.2-0.9,4.6-2,7.1-3.5c1.7-1.1,2.9-1.7,3.6-1.7
				C283.2,121.2,283.8,121.5,284.3,122z M249.5,86.9c-3.2,3.4-5.1,8.1-5.7,14.1h35.4c-0.2-6.1-1.7-10.8-4.6-14.2
				c-2.9-3.3-7-5-12.3-5C257,81.9,252.7,83.5,249.5,86.9z"/>
			<path id="XMLID_18_" class="st1" d="M343.5,97.7v32.4c0,1.1-0.3,1.9-0.9,2.6c-0.6,0.6-1.5,1-2.5,1c-1.1,0-1.9-0.3-2.6-1
				c-0.7-0.6-1-1.5-1-2.6v-32c0-5.5-1.1-9.5-3.3-12c-2.2-2.5-5.7-3.8-10.5-3.8c-5.5,0-9.9,1.7-13.2,5c-3.3,3.4-5,7.9-5,13.5v29.2
				c0,1.1-0.3,1.9-0.9,2.6c-0.6,0.6-1.5,1-2.5,1c-1.1,0-1.9-0.3-2.6-1c-0.6-0.6-1-1.5-1-2.6V79.9c0-1.1,0.3-1.9,1-2.6
				c0.6-0.6,1.5-1,2.6-1c1,0,1.8,0.3,2.4,0.9c0.6,0.6,0.9,1.5,0.9,2.5V87c1.8-3.5,4.3-6.2,7.6-8.1c3.3-1.9,7.2-2.8,11.5-2.8
				C336.8,76.1,343.5,83.3,343.5,97.7z"/>
			<path id="XMLID_20_" class="st1" d="M386.4,130.8c0,0.9-0.3,1.6-1,2.2c-0.7,0.5-1.8,0.8-3.3,0.7l-3.2-0.2
				c-5.8-0.4-10.1-2.2-12.9-5.3c-2.8-3.2-4.2-8-4.2-14.5V83.1H353c-0.9,0-1.6-0.2-2.2-0.7c-0.5-0.5-0.8-1.2-0.8-2
				c0-0.8,0.3-1.5,0.8-2.1c0.5-0.5,1.3-0.8,2.2-0.8h8.7V63.3c0-1.1,0.3-2,0.9-2.6c0.6-0.6,1.5-0.9,2.5-0.9c1.1,0,1.9,0.3,2.6,0.9
				c0.6,0.6,1,1.5,1,2.6v14.2h13.9c1,0,1.8,0.3,2.3,0.8c0.5,0.5,0.8,1.2,0.8,2.1c0,0.8-0.3,1.5-0.8,2c-0.5,0.5-1.3,0.7-2.3,0.7
				h-13.9V114c0,4.7,0.9,8.1,2.8,10.1c1.8,2,4.7,3.2,8.6,3.5l3.1,0.2C385.3,128,386.4,129,386.4,130.8z"/>
			<path id="XMLID_22_" class="st1" d="M402.2,132.6c-3.1-0.9-5.8-2.1-8.2-3.6c-1.5-1-2.5-1.9-3-2.6c-0.6-0.7-0.9-1.5-0.9-2.5
				c0-0.8,0.2-1.4,0.7-1.9c0.5-0.5,1.1-0.8,1.8-0.8s1.9,0.6,3.6,1.7c2.2,1.5,4.5,2.6,6.8,3.6c2.3,0.9,5.3,1.4,8.8,1.4
				c4.5,0,8-0.8,10.5-2.5c2.5-1.6,3.8-4,3.8-7c0-1.8-0.5-3.3-1.4-4.5c-0.9-1.2-2.4-2.2-4.6-3.1c-2.1-0.9-5.2-1.7-9.2-2.6
				c-6.8-1.5-11.6-3.5-14.5-5.9c-2.9-2.4-4.3-5.6-4.3-9.7c0-4.9,1.9-8.8,5.7-11.9c3.8-3,8.8-4.5,14.9-4.5c3,0,5.8,0.4,8.5,1.1
				c2.7,0.8,5.1,1.9,7,3.3c2.7,1.8,4,3.6,4,5.4c0,0.8-0.2,1.4-0.7,2c-0.5,0.6-1.1,0.9-1.8,0.9c-0.8,0-1.9-0.6-3.6-1.8
				c-2.1-1.5-4.1-2.6-6.1-3.5c-2-0.9-4.6-1.3-7.7-1.3c-4,0-7.1,0.9-9.5,2.7c-2.4,1.8-3.6,4.2-3.6,7.3c0,1.8,0.4,3.2,1.2,4.4
				c0.8,1.1,2.2,2.2,4.1,3c1.9,0.9,4.8,1.7,8.4,2.6c5.3,1.2,9.3,2.5,12.1,3.9c2.8,1.4,4.9,3,6.1,4.9c1.2,1.9,1.8,4.4,1.8,7.3
				c0,4.7-2,8.4-5.9,11.3c-3.9,2.9-9.2,4.3-15.6,4.3C408.5,133.9,405.3,133.5,402.2,132.6z"/>
			<path id="XMLID_24_" class="st1" d="M448.1,132.1c-0.7-0.7-1.1-1.5-1.1-2.5V55.8c0-1,0.4-1.8,1.1-2.5c0.7-0.7,1.6-1,2.7-1h43.6
				c1,0,1.8,0.3,2.3,0.8c0.6,0.5,0.9,1.3,0.9,2.3c0,0.9-0.3,1.6-0.9,2.2c-0.6,0.5-1.4,0.8-2.3,0.8H454V89h38c1,0,1.8,0.3,2.3,0.8
				c0.6,0.5,0.9,1.3,0.9,2.3c0,1-0.3,1.8-0.9,2.3c-0.6,0.5-1.4,0.8-2.3,0.8h-38V127h40.3c1,0,1.8,0.2,2.3,0.7
				c0.6,0.5,0.9,1.2,0.9,2.2c0,1-0.3,1.8-0.9,2.3c-0.6,0.5-1.4,0.8-2.3,0.8h-43.6C449.7,133.1,448.8,132.7,448.1,132.1z"/>
			<path id="XMLID_26_" class="st1" d="M546.4,81.4c3.3,3.5,5,8.8,5,15.9V130c0,1.1-0.3,1.9-0.9,2.6c-0.6,0.6-1.5,1-2.5,1
				c-1.1,0-1.9-0.3-2.5-1c-0.6-0.6-0.9-1.5-0.9-2.6v-6.9c-1.6,3.4-3.9,6.1-7,8c-3.1,1.9-6.6,2.8-10.5,2.8c-3.6,0-6.9-0.7-9.9-2.2
				c-3-1.5-5.3-3.5-7-6.1c-1.7-2.6-2.6-5.5-2.6-8.6c0-4.1,1.1-7.3,3.2-9.6c2.1-2.3,5.7-3.9,10.7-4.9c5-1,11.9-1.5,20.7-1.5h2.4v-4.2
				c0-5-1-8.7-3.1-11.1c-2.1-2.3-5.3-3.5-9.7-3.5c-5.7,0-11,1.5-16.2,4.5c-0.2,0.2-0.8,0.6-1.8,1.2c-1,0.6-1.8,1-2.5,1
				c-0.8,0-1.4-0.3-1.9-0.9c-0.5-0.6-0.7-1.3-0.7-2.1c0-1.7,1.3-3.3,4-4.9c2.7-1.5,5.7-2.7,8.9-3.6c3.3-0.8,6.5-1.3,9.7-1.3
				C538.1,76.1,543.1,77.9,546.4,81.4z M539.8,122.8c3.2-3.4,4.8-7.6,4.8-12.8v-3.8h-2.2c-7.3,0-13,0.3-16.8,0.9
				c-3.9,0.6-6.6,1.7-8.3,3.2c-1.6,1.5-2.4,3.6-2.4,6.5c0,3.2,1.2,5.9,3.7,8c2.4,2.1,5.5,3.2,9.1,3.2
				C532.5,127.8,536.6,126.1,539.8,122.8z"/>
			<path id="XMLID_29_" class="st1" d="M594.2,130.8c0,0.9-0.3,1.6-1,2.2c-0.7,0.5-1.8,0.8-3.3,0.7l-3.2-0.2
				c-5.8-0.4-10.1-2.2-12.9-5.3c-2.8-3.2-4.2-8-4.2-14.5V83.1h-8.7c-0.9,0-1.6-0.2-2.2-0.7c-0.5-0.5-0.8-1.2-0.8-2
				c0-0.8,0.3-1.5,0.8-2.1c0.5-0.5,1.3-0.8,2.2-0.8h8.7V63.3c0-1.1,0.3-2,0.9-2.6c0.6-0.6,1.5-0.9,2.5-0.9c1.1,0,1.9,0.3,2.6,0.9
				c0.6,0.6,1,1.5,1,2.6v14.2h13.9c1,0,1.8,0.3,2.3,0.8c0.5,0.5,0.8,1.2,0.8,2.1c0,0.8-0.3,1.5-0.8,2c-0.5,0.5-1.3,0.7-2.3,0.7
				h-13.9V114c0,4.7,0.9,8.1,2.8,10.1c1.8,2,4.7,3.2,8.6,3.5l3.1,0.2C593.2,128,594.2,129,594.2,130.8z"/>
		</g>
		<path id="XMLID_4_" class="st1" d="M504.6,133.1c0,0.2-0.1,0.4-0.1,0.5c-0.1,0.5-0.2,0.9-0.4,1.4c-0.2,0.5-0.3,0.9-0.5,1.3
			c11,1.4,16.9,3.5,17.1,4.9c-0.3,2.3-15.8,6.5-44.3,6.5c-28.5,0-44-4.2-44.3-6.5c0.1-1.1,3.8-2.6,10.5-3.9c-0.4-0.4-0.7-0.8-1-1.2
			c-0.3-0.4-0.6-0.8-0.9-1.3c-0.1-0.2-0.3-0.4-0.4-0.6c-12.8,2.5-20.5,6.1-20.5,9.5c0,5.9,23.2,12.5,56.5,12.5s56.5-6.6,56.5-12.5
			C532.7,139.8,522,135.5,504.6,133.1z"/>
	</g>
</g>
<g id="Layer_2">
	<g id="XMLID_5_">
	</g>
	<g id="XMLID_31_">
	</g>
	<g id="XMLID_32_">
	</g>
	<g id="XMLID_33_">
	</g>
	<g id="XMLID_34_">
	</g>
	<g id="XMLID_35_">
	</g>
</g>
</svg>
