<?xml version="1.0" encoding="UTF-8"?>
<svg enable-background="new 0 0 600 200" version="1.1" viewBox="0 0 600 200" xml:space="preserve" xmlns="http://www.w3.org/2000/svg">
<style type="text/css">
	.st0{fill:#FFFFFF;stroke:#000000;stroke-miterlimit:10;}
	.st1{fill:#FFFFFF;}
</style>
		<path class="st0" d="m5.8 125.2"/>
			<path class="st1" d="m24.7 131.3c-5.2-1.8-9.3-4.2-12.3-7.3-1-0.8-1.5-1.9-1.5-3.3 0-0.8 0.2-1.6 0.7-2.2s1-0.9 1.7-0.9c0.8 0 1.6 0.4 2.6 1.1 7.2 6 15.5 8.9 25.1 8.9 7 0 12.3-1.4 16.1-4.2s5.7-6.7 5.7-11.9c0-3-0.9-5.4-2.8-7.2-1.8-1.8-4.2-3.3-7-4.3s-6.6-2.1-11.3-3.2c-6.3-1.4-11.3-2.8-15.2-4.2-3.9-1.5-7.1-3.6-9.8-6.6-2.7-2.9-4-6.9-4-11.9 0-4.5 1.2-8.5 3.6-12s5.8-6.2 10.1-8.1c4.4-1.9 9.4-2.9 15-2.9 5.3 0 10.2 0.9 14.9 2.6s8.5 4.2 11.6 7.4c1 1 1.5 2.1 1.5 3.3 0 0.8-0.2 1.6-0.7 2.2s-1.1 0.9-1.7 0.9c-0.8 0-1.6-0.4-2.6-1.1-4.1-3.4-7.9-5.7-11.2-7s-7.2-1.9-11.7-1.9c-6.8 0-12.1 1.5-15.9 4.4s-5.7 7-5.7 12.1c0 3.1 0.8 5.7 2.5 7.6s3.9 3.5 6.6 4.6 6.2 2.3 10.5 3.3l3 0.7c6.2 1.5 11.1 2.9 14.7 4.2s6.6 3.3 9.1 6 3.7 6.4 3.7 10.9c0 4.4-1.2 8.2-3.6 11.6s-5.8 6-10.2 7.9-9.4 2.8-15.1 2.8c-5.7 0.4-11.1-0.5-16.4-2.3z"/>
			<path class="st1" d="m109 130.8c0 0.9-0.3 1.6-1 2.2-0.7 0.5-1.8 0.8-3.3 0.7l-3.2-0.2c-5.8-0.4-10.1-2.2-12.9-5.3-2.8-3.2-4.2-8-4.2-14.5v-30.6h-8.7c-0.9 0-1.6-0.2-2.2-0.7-0.5-0.5-0.8-1.2-0.8-2s0.3-1.5 0.8-2.1c0.5-0.5 1.3-0.8 2.2-0.8h8.7v-14.2c0-1.1 0.3-2 0.9-2.6s1.5-0.9 2.5-0.9c1.1 0 1.9 0.3 2.6 0.9 0.6 0.6 1 1.5 1 2.6v14.2h13.9c1 0 1.8 0.3 2.3 0.8s0.8 1.2 0.8 2.1c0 0.8-0.3 1.5-0.8 2s-1.3 0.7-2.3 0.7h-13.9v30.9c0 4.7 0.9 8.1 2.8 10.1 1.8 2 4.7 3.2 8.6 3.5l3.1 0.2c2 0.2 3.1 1.2 3.1 3z"/>
			<path class="st1" d="m160.4 77.3c0.6 0.6 1 1.5 1 2.6v50.2c0 1.1-0.3 1.9-1 2.6-0.6 0.6-1.5 1-2.6 1-1 0-1.8-0.3-2.4-1-0.6-0.6-0.9-1.5-0.9-2.6v-7c-1.8 3.5-4.3 6.2-7.5 8s-6.9 2.8-11.1 2.8c-6.6 0-11.5-1.8-14.8-5.4s-5-9-5-16.1v-32.5c0-1.1 0.3-1.9 1-2.6 0.6-0.6 1.5-1 2.6-1s1.9 0.3 2.5 1c0.6 0.6 0.9 1.5 0.9 2.6v32c0 5.4 1.1 9.4 3.3 12s5.6 3.8 10.3 3.8c5.3 0 9.6-1.7 12.9-5.1 3.2-3.4 4.9-7.9 4.9-13.6v-29.1c0-1.1 0.3-1.9 0.9-2.6 0.6-0.6 1.5-1 2.5-1 1 0.1 1.9 0.4 2.5 1z"/>
			<path class="st1" d="m223.3 52.7c0.6 0.7 1 1.5 1 2.6v74.7c0 1.1-0.3 1.9-1 2.6-0.7 0.6-1.5 1-2.6 1s-1.9-0.3-2.5-1c-0.6-0.6-0.9-1.5-0.9-2.6v-7.6c-1.7 3.7-4.2 6.6-7.4 8.5-3.3 1.9-7.2 2.9-11.7 2.9-4.9 0-9.2-1.2-13-3.6-3.7-2.4-6.6-5.8-8.7-10.2s-3.1-9.5-3.1-15.3c0-5.7 1-10.8 3.1-15.1s5-7.7 8.7-10c3.7-2.4 8.1-3.6 13-3.6 4.5 0 8.4 1 11.7 2.9s5.8 4.8 7.4 8.5v-32.1c0-1.1 0.3-1.9 0.9-2.6 0.6-0.6 1.5-1 2.5-1 1.1 0 2 0.3 2.6 1zm-10.7 69.1c3.2-3.9 4.8-9.5 4.8-16.8s-1.6-12.9-4.7-16.8c-3.1-4-7.6-6-13.4-6-5.9 0-10.4 2-13.6 5.9s-4.8 9.5-4.8 16.7c0 7.3 1.6 12.9 4.8 16.9s7.7 6 13.5 6c5.7 0 10.2-2 13.4-5.9z"/>
			<path class="st1" d="m284.3 122c0.5 0.6 0.7 1.2 0.7 2 0 1.7-1.3 3.3-3.9 4.9-5.5 3.3-11.3 4.9-17.4 4.9-8.5 0-15.2-2.6-20.1-7.7s-7.3-12.1-7.3-21.1c0-5.7 1.1-10.8 3.3-15.2s5.2-7.8 9.2-10.2c3.9-2.4 8.5-3.6 13.6-3.6 7.2 0 12.9 2.3 17 6.9 4.2 4.6 6.2 11 6.2 19.1 0 1.4-0.3 2.4-0.9 3s-1.6 1-3 1h-38.2c0.2 7 2.1 12.4 5.5 16 3.4 3.7 8.3 5.5 14.6 5.5 3.3 0 6-0.4 8.3-1.3 2.2-0.9 4.6-2 7.1-3.5 1.7-1.1 2.9-1.7 3.6-1.7 0.6 0.2 1.2 0.5 1.7 1zm-34.8-35.1c-3.2 3.4-5.1 8.1-5.7 14.1h35.4c-0.2-6.1-1.7-10.8-4.6-14.2-2.9-3.3-7-5-12.3-5-5.3 0.1-9.6 1.7-12.8 5.1z"/>
			<path class="st1" d="m343.5 97.7v32.4c0 1.1-0.3 1.9-0.9 2.6-0.6 0.6-1.5 1-2.5 1-1.1 0-1.9-0.3-2.6-1-0.7-0.6-1-1.5-1-2.6v-32c0-5.5-1.1-9.5-3.3-12s-5.7-3.8-10.5-3.8c-5.5 0-9.9 1.7-13.2 5-3.3 3.4-5 7.9-5 13.5v29.2c0 1.1-0.3 1.9-0.9 2.6-0.6 0.6-1.5 1-2.5 1-1.1 0-1.9-0.3-2.6-1-0.6-0.6-1-1.5-1-2.6v-50.1c0-1.1 0.3-1.9 1-2.6 0.6-0.6 1.5-1 2.6-1 1 0 1.8 0.3 2.4 0.9s0.9 1.5 0.9 2.5v7.3c1.8-3.5 4.3-6.2 7.6-8.1s7.2-2.8 11.5-2.8c13.3 0 20 7.2 20 21.6z"/>
			<path class="st1" d="m386.4 130.8c0 0.9-0.3 1.6-1 2.2-0.7 0.5-1.8 0.8-3.3 0.7l-3.2-0.2c-5.8-0.4-10.1-2.2-12.9-5.3-2.8-3.2-4.2-8-4.2-14.5v-30.6h-8.8c-0.9 0-1.6-0.2-2.2-0.7-0.5-0.5-0.8-1.2-0.8-2s0.3-1.5 0.8-2.1c0.5-0.5 1.3-0.8 2.2-0.8h8.7v-14.2c0-1.1 0.3-2 0.9-2.6s1.5-0.9 2.5-0.9c1.1 0 1.9 0.3 2.6 0.9 0.6 0.6 1 1.5 1 2.6v14.2h13.9c1 0 1.8 0.3 2.3 0.8s0.8 1.2 0.8 2.1c0 0.8-0.3 1.5-0.8 2s-1.3 0.7-2.3 0.7h-13.9v30.9c0 4.7 0.9 8.1 2.8 10.1 1.8 2 4.7 3.2 8.6 3.5l3.1 0.2c2.1 0.2 3.2 1.2 3.2 3z"/>
			<path class="st1" d="m402.2 132.6c-3.1-0.9-5.8-2.1-8.2-3.6-1.5-1-2.5-1.9-3-2.6-0.6-0.7-0.9-1.5-0.9-2.5 0-0.8 0.2-1.4 0.7-1.9s1.1-0.8 1.8-0.8 1.9 0.6 3.6 1.7c2.2 1.5 4.5 2.6 6.8 3.6 2.3 0.9 5.3 1.4 8.8 1.4 4.5 0 8-0.8 10.5-2.5 2.5-1.6 3.8-4 3.8-7 0-1.8-0.5-3.3-1.4-4.5s-2.4-2.2-4.6-3.1c-2.1-0.9-5.2-1.7-9.2-2.6-6.8-1.5-11.6-3.5-14.5-5.9s-4.3-5.6-4.3-9.7c0-4.9 1.9-8.8 5.7-11.9 3.8-3 8.8-4.5 14.9-4.5 3 0 5.8 0.4 8.5 1.1 2.7 0.8 5.1 1.9 7 3.3 2.7 1.8 4 3.6 4 5.4 0 0.8-0.2 1.4-0.7 2s-1.1 0.9-1.8 0.9c-0.8 0-1.9-0.6-3.6-1.8-2.1-1.5-4.1-2.6-6.1-3.5s-4.6-1.3-7.7-1.3c-4 0-7.1 0.9-9.5 2.7s-3.6 4.2-3.6 7.3c0 1.8 0.4 3.2 1.2 4.4 0.8 1.1 2.2 2.2 4.1 3 1.9 0.9 4.8 1.7 8.4 2.6 5.3 1.2 9.3 2.5 12.1 3.9s4.9 3 6.1 4.9 1.8 4.4 1.8 7.3c0 4.7-2 8.4-5.9 11.3s-9.2 4.3-15.6 4.3c-2.9-0.1-6.1-0.5-9.2-1.4z"/>
			<path class="st1" d="m448.1 132.1c-0.7-0.7-1.1-1.5-1.1-2.5v-73.8c0-1 0.4-1.8 1.1-2.5s1.6-1 2.7-1h43.6c1 0 1.8 0.3 2.3 0.8 0.6 0.5 0.9 1.3 0.9 2.3 0 0.9-0.3 1.6-0.9 2.2-0.6 0.5-1.4 0.8-2.3 0.8h-40.4v30.6h38c1 0 1.8 0.3 2.3 0.8 0.6 0.5 0.9 1.3 0.9 2.3s-0.3 1.8-0.9 2.3-1.4 0.8-2.3 0.8h-38v31.8h40.3c1 0 1.8 0.2 2.3 0.7 0.6 0.5 0.9 1.2 0.9 2.2s-0.3 1.8-0.9 2.3-1.4 0.8-2.3 0.8h-43.6c-1 0.1-1.9-0.3-2.6-0.9z"/>
			<path class="st1" d="m546.4 81.4c3.3 3.5 5 8.8 5 15.9v32.7c0 1.1-0.3 1.9-0.9 2.6-0.6 0.6-1.5 1-2.5 1-1.1 0-1.9-0.3-2.5-1-0.6-0.6-0.9-1.5-0.9-2.6v-6.9c-1.6 3.4-3.9 6.1-7 8s-6.6 2.8-10.5 2.8c-3.6 0-6.9-0.7-9.9-2.2s-5.3-3.5-7-6.1-2.6-5.5-2.6-8.6c0-4.1 1.1-7.3 3.2-9.6s5.7-3.9 10.7-4.9 11.9-1.5 20.7-1.5h2.4v-4.2c0-5-1-8.7-3.1-11.1-2.1-2.3-5.3-3.5-9.7-3.5-5.7 0-11 1.5-16.2 4.5-0.2 0.2-0.8 0.6-1.8 1.2s-1.8 1-2.5 1c-0.8 0-1.4-0.3-1.9-0.9s-0.7-1.3-0.7-2.1c0-1.7 1.3-3.3 4-4.9 2.7-1.5 5.7-2.7 8.9-3.6 3.3-0.8 6.5-1.3 9.7-1.3 6.8 0 11.8 1.8 15.1 5.3zm-6.6 41.4c3.2-3.4 4.8-7.6 4.8-12.8v-3.8h-2.2c-7.3 0-13 0.3-16.8 0.9-3.9 0.6-6.6 1.7-8.3 3.2-1.6 1.5-2.4 3.6-2.4 6.5 0 3.2 1.2 5.9 3.7 8 2.4 2.1 5.5 3.2 9.1 3.2 4.8-0.2 8.9-1.9 12.1-5.2z"/>
			<path class="st1" d="m594.2 130.8c0 0.9-0.3 1.6-1 2.2-0.7 0.5-1.8 0.8-3.3 0.7l-3.2-0.2c-5.8-0.4-10.1-2.2-12.9-5.3-2.8-3.2-4.2-8-4.2-14.5v-30.6h-8.7c-0.9 0-1.6-0.2-2.2-0.7-0.5-0.5-0.8-1.2-0.8-2s0.3-1.5 0.8-2.1c0.5-0.5 1.3-0.8 2.2-0.8h8.7v-14.2c0-1.1 0.3-2 0.9-2.6s1.5-0.9 2.5-0.9c1.1 0 1.9 0.3 2.6 0.9 0.6 0.6 1 1.5 1 2.6v14.2h13.9c1 0 1.8 0.3 2.3 0.8s0.8 1.2 0.8 2.1c0 0.8-0.3 1.5-0.8 2s-1.3 0.7-2.3 0.7h-13.9v30.9c0 4.7 0.9 8.1 2.8 10.1 1.8 2 4.7 3.2 8.6 3.5l3.1 0.2c2.1 0.2 3.1 1.2 3.1 3z"/>
		<path class="st1" d="m504.6 133.1c0 0.2-0.1 0.4-0.1 0.5-0.1 0.5-0.2 0.9-0.4 1.4s-0.3 0.9-0.5 1.3c11 1.4 16.9 3.5 17.1 4.9-0.3 2.3-15.8 6.5-44.3 6.5s-44-4.2-44.3-6.5c0.1-1.1 3.8-2.6 10.5-3.9-0.4-0.4-0.7-0.8-1-1.2s-0.6-0.8-0.9-1.3c-0.1-0.2-0.3-0.4-0.4-0.6-12.8 2.5-20.5 6.1-20.5 9.5 0 5.9 23.2 12.5 56.5 12.5s56.5-6.6 56.5-12.5c-0.1-3.9-10.8-8.2-28.2-10.6z"/>
</svg>
